<?xml version="1.0" encoding="UTF-8"?>
<svg id="Layer_1" data-name="Layer 1" xmlns="http://www.w3.org/2000/svg" viewBox="0 0 2000 2000">
  <defs>
    <style>
      .cls-1 {
        fill: #00a80a;
      }

      .cls-1, .cls-2, .cls-3, .cls-4 {
        stroke-width: 0px;
      }

      .cls-3 {
        fill: #db3e16;
      }

      .cls-4 {
        fill: #fff;
      }
    </style>
  </defs>
  <path class="cls-2" d="m982.4,1039.4c-36.4,14.7-67.6,6.7-95.5-16.8-15.3-12.9-23.7-30.7-27.8-50-5.1-24.2-9-48.7-12.3-73.6,1.3,1.8,2.6,3.6,3.8,5.4,7,10.6,14,21.1,21,31.7,12.6,18.9,30.2,23.8,49.8,12.2,8.4-5,16.1-7.6,26-8.1,20.5-1,37.7-10.5,51.7-25.7,2.3-2.5,4.3-3.7,8.2-3.3,8.6.8,17.3.3,26,.5,2,0,3.9.6,6,1-9.4,5.5-18.4,9.8-26.1,15.7-8,6.1-12.6,15.1-16.2,25.6,11.3-8,22.6-14.6,35.4-16.8,12.5-2.2,25.4-2.8,38.2-4,0,.4,0-.5-.3-1.2-7-12.7-14.1-25.3-21-38-1.8-3.4-4.1-4-7.8-3.8-13.3,1-26.7,2.7-39.8-2.3-8.5-3.3-15.6-8.5-20.6-16.2-7.2-10.9-11.7-23-12.3-36.1-.6-12.4,4.8-17.9,17.1-17.7,7.7.1,15.6.9,23.1,2.5,16.7,3.7,33.5,2.3,50.3,1.4,1.3,0,2.5-.2,3.8-.3,9.5-1.2,16.8,1.7,23.7,8.8,21.7,22.8,44,45.1,66.1,67.5,5.7,5.7,8,12.5,8.4,20.5,1,19.9-3.8,37.9-16.3,53.8-18,22.9-35.4,46.2-53.4,69.1-2.8,3.6-1.5,6.5-.5,9.5,7.5,24.2,14.6,48.5,23.1,72.3,6.5,18.2,14.9,35.6,23,54.6,42.7-36.9,66.1-83.3,79.8-135.8,1.3,6.8,2.6,13.6,3.8,20.4.1.7,0,1.5.3,2.1,4.7,13,.9,25-3.1,37.4-15.7,47.9-43.1,88.1-78.8,123.2-16.8,16.5-34.1,32.4-53.2,46.4-13.3-25.2-24.3-51-32.2-78.2,12.3,15.9,25.3,31.1,42.5,42.5-1.5-2.7-2.8-5.6-4.5-8.2-11.7-18.1-23.8-35.9-35.2-54.2-20.7-33.4-36.3-69.1-47.3-107-1.7,39.4,4.5,78.1,9.6,117-21.8-39.2-28.5-82.6-34.6-126.2-9.5,66.9-18.7,133.8.4,200.8,4.1-22.8,9.2-45.2,20.4-66.7.4,1.4.7,2.1.7,2.8-.8,39.7,4.3,78.7,15.8,116.7.8,2.6,2.1,5-1.6,7.3-32.9,19.7-66.1,38.9-101.3,54.5-.5.2-1,.3-2.5.8-2.8-11.5-5.7-22.9-8.2-34.3-11.8-53.8-13.4-108.4-11.4-163.2,1.5-39.4,3.3-78.9,4.9-118.3,0-.7.1-1.4.3-2.8,17.7,8.9,35.9,13.4,55,5.9,10.3-4.1,18.1-11.8,25.8-21.3Zm47.4,8.2c-9.3-13.3-45.6-41.3-58.5-45.4,11.3,25.3,32.3,38.2,58.5,45.4Z"/>
  <path class="cls-3" d="m1276.5,1014.2c8.7,87-10.7,165.2-60.3,235.4-32.8,46.4-74.8,82.9-122.8,112.7-28.8,17.9-59,33.1-90.7,45.3-1.8.7-4.1,1.4-5.7.8-14.2-5.1-28.3-10.5-42.5-15.8,0-.5,0-1,0-1.5,5.7-2.9,11.4-6,17.1-8.8,64.3-32.3,123.6-71.8,176-121.2,57.2-54,98.3-117.9,118.4-194.4,4.1-15.7,6.3-31.9,9.4-47.9.2-1,.5-2,1.2-4.5Z"/>
  <path class="cls-1" d="m723.5,1015.8c14.4,85.4,47.1,161,112.9,219.4l1.7-.4c.8-11.2,1.8-22.5,2-33.7,0-2.5-3-5.2-5-7.4-24.3-27.8-41.1-59.8-52.7-94.7-3.7-11.2-5.5-22.2-2.1-33.9,2.2-7.5,2.8-15.5,5-23.3,1.7,6.3,3.3,12.7,5.2,18.9,14.1,47.1,38.8,87.4,77.5,118.5,2.7,2.2,3.9,4.5,3.9,8.2-.3,26.8-.5,53.6-.1,80.4.4,25.2,5,50,10.3,74.6.3,1.5.5,3.1.9,5-84.8-58.2-176.2-172.1-159.5-331.6Z"/>
  <path class="cls-2" d="m1112.1,824c-9.4-6.9-17.8-15.8-28.1-19.9-10.3-4.1-22.5-3.5-34.5-5,1.2-5.4,2.6-12,4.2-18.6,12.2-50.6,24.4-101.2,36.6-151.8,3-12.6,11.7-20,23.9-20.6,13.6-.7,24.4,6,28.3,18.1,1.2,3.8,1.5,8.3.8,12.2-8.2,49.5-16.7,99-25.1,148.6-2.1,12.6-4.1,25.3-6,37Z"/>
  <path class="cls-2" d="m1025.3,801c-18.3-1.8-35.7-7.1-54.2-1.7-2-8.1-4.2-16-6-24-11.3-50.9-22.6-101.7-33.6-152.6-3.1-14.3,5.8-26.9,20.4-30.4,14.8-3.6,29.5,4.1,32.9,18.3,4.7,19.5,8.5,39.2,12.7,58.8,9.2,43.5,18.4,87,27.8,131.6Z"/>
  <path class="cls-2" d="m982.5,902c-5,4.2-8.4,8.4-12.8,10.6-6.6,3.3-13.7,5.5-20.8,7.5-8.7,2.5-13.3.3-16.9-8.1-4.9-11.6-9.4-23.5-13.9-35.3-8.6-22.6-17.1-45.3-25.7-67.9-2.6-6.9-.9-13.2,3.8-18,11.3-11.5,25.6-16.7,41.5-17.2,6.6-.2,10.6,4.5,12.6,10.3,2.6,7.5,4.6,15.2,6.7,22.9.4,1.4.2,3.4-.5,4.5-9.8,13.2-8.9,27.9-5.4,42.6,4.2,17.8,12.9,33.3,27.1,45.3,1,.8,2.1,1.4,4.5,3Z"/>
  <path class="cls-2" d="m901.8,934.5c-7.3.2-10.7-3.9-13.7-8.3-12.3-18.1-24.5-36.2-36.8-54.4-2.8-4.2-5.8-8.3-8.5-12.6-4.2-6.7-4.3-13.3,1.4-18.7,6.5-6.2,13.6-11.9,21.2-16.7,7.3-4.6,13.1-1.2,16.8,8.3,6,15.5,11.9,31,17.9,46.5,4.8,12.3,9.4,24.7,14.7,36.7,4.8,10.7,2.4,13.9-9,18.2-1.7.6-3.5.7-4.1.8Z"/>
  <path class="cls-4" d="m1029.8,1047.6c-26.2-7.3-47.2-20.1-58.5-45.4,12.9,4.1,49.2,32.1,58.5,45.4Z"/>
</svg>